<svg xmlns="http://www.w3.org/2000/svg" width="32" height="32" viewBox="0 0 24 24"><g fill="none" stroke="currentColor" stroke-linecap="round" stroke-linejoin="round" stroke-width="1.5" color="currentColor"><path d="M13.5 5.5V2m0 10V9m0 13c6 0 7.5-4.51 7.5-10S19.5 2 13.5 2S6 6.51 6 12s1.5 10 7.5 10"/><path d="M15 7c0-.466 0-.699-.076-.883a1 1 0 0 0-.541-.54c-.184-.077-.417-.077-.883-.077s-.699 0-.883.076a1 1 0 0 0-.54.541C12 6.301 12 6.534 12 7v.5c0 .466 0 .699.076.883a1 1 0 0 0 .541.54c.184.077.417.077.883.077s.699 0 .883-.076a1 1 0 0 0 .54-.541C15 8.199 15 7.966 15 7.5zm-9 5h15M5 3.167L4.619 2m-.59 3.567L3 6"/></g></svg>