<svg xmlns="http://www.w3.org/2000/svg" width="32" height="32" viewBox="0 0 24 24"><path fill="currentColor" d="m4 8l-.707-.707L2.586 8l.707.707L4 8Zm15 2a1 1 0 1 0 2 0h-2ZM7.293 3.293l-4 4l1.414 1.414l4-4l-1.414-1.414Zm-4 5.414l4 4l1.414-1.414l-4-4l-1.414 1.414ZM4 9h14V7H4v2Zm14 0a1 1 0 0 1 1 1h2a3 3 0 0 0-3-3v2Zm2 7l.707-.707l.707.707l-.707.707L20 16ZM5 16v1v-1Zm-3-2a1 1 0 1 1 2 0H2Zm14.707-2.707l4 4l-1.414 1.414l-4-4l1.414-1.414Zm4 5.414l-4 4l-1.414-1.414l4-4l1.414 1.414ZM20 17H5v-2h15v2ZM5 17a3 3 0 0 1-3-3h2a1 1 0 0 0 1 1v2Z"/></svg>