<svg xmlns="http://www.w3.org/2000/svg" width="32" height="32" viewBox="0 0 16 16"><path fill-rule="evenodd" d="M4.48 7.27c.26.26 1.28 1.33 1.28 1.33l.56-.58l-.88-.91l1.69-1.8s-.76-.74-.43-.45c.32-1.19.03-2.51-.87-3.44C4.93.5 3.66.2 2.52.51l1.93 2l-.51 1.96l-1.89.52l-1.93-2C-.19 4.17.1 5.48 1 6.4c.94.98 2.29 1.26 3.48.87zm6.44 1.94l-2.33 2.3l3.84 3.98c.31.33.73.49 1.14.49c.41 0 .82-.16 1.14-.49c.63-.65.63-1.7 0-2.35l-3.79-3.93zM16 2.53L13.55 0L6.33 7.46l.88.91l-4.31 4.46l-.99.53l-1.39 2.27l.35.37l2.2-1.44l.51-1.02L7.9 9.08l.88.91L16 2.53z" fill="currentColor"/></svg>