<?xml version="1.0" encoding="utf-8"?>
<!-- Generator: Adobe Illustrator 25.2.1, SVG Export Plug-In . SVG Version: 6.00 Build 0)  -->
<svg version="1.1" id="레이어_1" xmlns="http://www.w3.org/2000/svg" xmlns:xlink="http://www.w3.org/1999/xlink" x="0px"
	 y="0px" viewBox="0 0 400 512" style="enable-background:new 0 0 400 512;" xml:space="preserve">
<style type="text/css">
	.st0{fill:#B72929;}
	.st1{fill:#FFFFFF;}
</style>
<polygon class="st0" points="0,0 0,419.7 199.8,512 400,419.7 400,0 "/>
<g>
	<path class="st1" d="M235.1,292.7c0,4.8-0.9,9.3-2.7,13.5c-1.8,4.2-4.3,7.8-7.6,10.8c-3.2,3-7,5.4-11.3,7.2
		c-4.3,1.8-8.9,2.7-13.7,2.7c-4.8,0-9.3-0.8-13.5-2.5c-4.2-1.7-7.9-4.1-11-7.2c-3.1-3.1-5.6-6.7-7.6-10.8c-1.9-4.1-2.9-8.5-2.9-13.3
		c0-4.6,0.9-8.9,2.7-13.1c1.8-4.2,4.3-7.9,7.4-11c3.1-3.1,6.8-5.6,11.2-7.4c4.3-1.8,8.9-2.7,13.7-2.7c4.8,0,9.4,0.9,13.7,2.7
		c4.3,1.8,8.1,4.2,11.3,7.2c3.2,3,5.8,6.6,7.6,10.8C234.2,283.8,235.1,288.2,235.1,292.7z M169.6,238V68.4h60.1V238H169.6z"/>
</g>
<g>
	<polygon class="st1" points="0,339 0,378.9 199.8,471.2 400,378.9 400,339 199.8,431.3 	"/>
</g>
</svg>
